<svg xmlns="http://www.w3.org/2000/svg" viewBox="0 0 22.31 22.97"><defs><style>.cls-1{fill:#3ade6d;}.cls-2{fill:#0c2424;}</style></defs><title>Recurso 2</title><g id="Capa_2" data-name="Capa 2"><g id="Capa_1-2" data-name="Capa 1"><path class="cls-1" d="M2,14.61l-2,.91,2.64,4.73,5.88-2.84V23h5.27V17.41l5.89,2.84,2.63-4.73-2-.91a21.67,21.67,0,0,0-9.2-2h0A21.66,21.66,0,0,0,2,14.61Z"/><path class="cls-2" d="M2,8.37,0,7.45,2.64,2.73,8.52,5.57V0h5.27V5.57l5.89-2.84,2.63,4.72-2,.92a21.81,21.81,0,0,1-9.2,2h0A21.8,21.8,0,0,1,2,8.37Z"/></g></g></svg>