<?xml version="1.0" encoding="utf-8"?>
<!-- Generator: Adobe Illustrator 24.0.0, SVG Export Plug-In . SVG Version: 6.00 Build 0)  -->
<svg version="1.1" id="b37098a9-9602-4dae-9da7-bb336c014bf8"
	 xmlns="http://www.w3.org/2000/svg" xmlns:xlink="http://www.w3.org/1999/xlink" x="0px" y="0px" viewBox="0 0 738.1 708.7"
	 style="enable-background:new 0 0 738.1 708.7;" xml:space="preserve">
<style type="text/css">
	.st0{fill:#FEB9B9;}
	.st1{fill:#2F2E41;}
	.st2{fill:#3F3D56;}
	.st3{fill:#E6E6E6;}
	.st4{fill:#FFFFFF;}
	.st5{fill:#00D762;}
	.st6{fill:#061F1F;}
</style>
<g id="a716a1f1-6b00-4465-bd1c-a2c028b5604e">
	<path id="e54e6529-6084-4a1d-add3-90a4c5cc374f" class="st0" d="M660,623.1v13.3l11.1,0.7l-0.7-15.5L660,623.1z"/>
	<path id="aa7fe956-15fa-49a3-841c-8afb545ad874" class="st1" d="M662.2,629l-7.4-1.5c0,0-10.3,18.5-17,19.9
		c-5.8,1.3-19.5,6-14.5,12.6c1.5,1.9,4,2.9,6.4,2.7l31.7-2.7c0,0,12.5,0.7,12.5-6.6V629L662.2,629z"/>
	<path id="a7ac59d0-4c5e-451c-bf35-4efdeb5633c0" class="st1" d="M660.9,554.3l-3.2,72.1l20.1,5.3L660.9,554.3z"/>
	<path id="a08adc14-3209-4395-823e-cebe9963673a" class="st0" d="M668.4,651.8v19.1l15.9,1.1l-1.1-22.3L668.4,651.8z"/>
	<path id="ed07c175-0c25-405a-a991-c8f0d9251695" class="st1" d="M635.5,462.1l8.5,12.7l19.1,114.5l3.2,68.9H698l-7.4-167.5
		c0,0,14.8-18,4.2-36L635.5,462.1z"/>
	<path id="b2f37150-101e-4b97-a3bb-c9b520730644" class="st1" d="M671.5,660.3l-10.6-2.1c0,0-14.8,26.5-24.4,28.6
		c-8.2,1.8-27.3,8.3-21.2,17.5c2.2,3.1,5.8,4.8,9.6,4.4l45.5-3.9c0,0,18,1.1,18-9.5v-35L671.5,660.3z"/>
	<circle id="e8ae8751-5f15-4e1d-ab3e-c03bed5425dd" class="st0" cx="672.6" cy="294.6" r="22.3"/>
	<path id="a4692f39-5944-448e-9eb0-f63e3a7ffbbc" class="st0" d="M659.9,306.3v31.8c0,1.1,24.4-2.1,24.4-2.1s1.1-29.7,1.1-32.9
		L659.9,306.3z"/>
	<path id="e4631c2d-bf0b-4189-a249-c10b314651dc" class="st2" d="M686.4,320c0,0-13.8-3.2-38.2,12.7H644l-1.1,24.4
		c0,0-14.8,15.9-12.7,22.3c0,0-18,21.2-10.6,29.7c0,0-17,20.1-9.5,28.6c0,0-18,23.3-7.4,26.5c0,0,23.3,0,36,2.1s65.7-9.5,65.7-9.5
		s1.1-27.6,0-27.6h-1.1c0,0,4.2-25.4,2.1-26.5c0,0,1.1-28.6-2.1-29.7L686.4,320z"/>
	<path id="b575756a-b91e-42cf-a15b-1b60f6a2610c" class="st3" d="M683,344.4c-7.9,1.1-14.7,6.1-18,13.4c-3.1,6.8-4.1,14.3-2.9,21.6
		c3.2,21.2,10.6,27.6,10.6,27.6s-7.4,3.2-5.3,6.4s-2.1,3.2-2.1,3.2s0,1.1-3.2,3.2s-5.3,1.1-6.4,2.1s-5.3,0-5.3,0s-12.7,22.3,0,24.4
		s18-8.5,23.3-7.4s30.7-7.4,28.6-27.6c-2.1-20.1-11.7-67.8-19.1-66.8L683,344.4z"/>
	<path id="b8099647-f139-4340-a743-fc574e29cdbc" class="st1" d="M652.9,273.4c1.1-4.4,4.2-8.1,8.5-9.8c4.2-1.7,10.2-6.5,14-4.1
		c1.7,1.1,3.1,2.5,4.9,3.5c2.8,1.6,6.2,1.8,9.4,2.3c8,1.3,14.8,10.2,20.4,16.1c5.6,5.9,8.9,14.2,7.9,22.3
		c-0.7,5.3-3.1,10.3-4.7,15.4c-1.6,5.1-2.3,11,0.3,15.7c3,5.4,9.3,7.9,13.6,12.3c6.1,6.6,7.3,16.4,2.8,24.2c-1.1,1.5-2,3.2-2.7,4.9
		c-0.5,1.8-0.1,4.1,1.6,4.9c0.8,0.3,1.5,0.5,2.3,0.7c2.7,0.8,4.3,3.5,5,6.2s0.8,5.5,1.6,8.2c2.1,6.4-12.5,5.7-6.6,9.1
		c-11.6-0.3-2.5,4-13.7,6.9c-4.8,1.3-10.4,3-14.5,0.1c-2.8-2-3.8-5.7-3.9-9.1c-0.1-3.4,0.6-6.8,0.6-10.3c-0.3-7.5-4-14.5-10-19.1
		c-3.5-2.7-7.5-4.6-10.8-7.5c-5.7-5.2-8.3-12.9-6.9-20.4c0.5-2.7,1.5-5.3,1.4-8c-0.3-5.3-4.9-9.5-5.9-14.8c-1-5.5,2.1-10.9,3-16.4
		c0.4-3.4,0.3-6.8-0.2-10.2c-0.7-5.6-1.7-11.4-5-15.9c-3.1-4.3-7.4-7.1-12.7-7.4c-1.7-0.1,0.7-1.6,0,0"/>
	<ellipse id="b40a0ec8-8cea-415f-b8a8-4fdbfa219479" class="st0" cx="671" cy="296.2" rx="2.1" ry="4.2"/>
</g>
<path id="fc914514-1042-4f3e-9382-2a2bd3a05a2f" class="st3" d="M44,0c-1.5,0-2.7,1.2-2.7,2.7v93c0,1.5,1.2,2.7,2.7,2.7h317.2
	c1.5,0,2.7-1.2,2.7-2.7v-93c0-1.5-1.2-2.7-2.7-2.7L44,0z"/>
<path id="fc60a940-5b5f-47e1-886f-8b9349204f05" class="st4" d="M48.1,91.6h308.9V6.8H48.1L48.1,91.6z"/>
<path id="b37dca77-34e7-4938-924b-74ea49a8e34b" class="st5" d="M318.1,74c-2.5,0-4.5,2-4.5,4.5s2,4.5,4.5,4.5h18.1
	c2.5,0,4.5-2,4.5-4.5s-2-4.5-4.5-4.5H318.1z"/>
<rect id="a114a1b8-363a-4115-bcea-0275bda15cb1" x="132.1" y="65.3" class="st3" width="208.6" height="1.2"/>
<circle id="fd059875-cd6f-429e-81eb-c199f1a3d666" class="st6" cx="88.5" cy="49.2" r="26.3"/>
<path id="ad693766-5e26-437f-8d3d-58ce33ee9e84" class="st2" d="M132.4,58.6l-0.7-1l21.7-14.4l14.9,7.1l21.4-13.7l0.3,0.1l42.2,18
	l33.9-16.6l32.9,13.3l41.3,8.4l0.8,0.9l-41.9-7.9l-33.1-13.4l-33.9,16.6L189.8,38l-21.4,13.7l-14.9-7.1L132.4,58.6z"/>
<path id="ff424c2d-4733-4249-9b35-4eb43ebe2556" class="st3" d="M135.9,74.7c-2.1,0-3.8,1.8-3.8,3.9c0,2.1,1.7,3.8,3.8,3.8h40.4
	c2.1,0,3.9-1.7,3.9-3.8c0-2.1-1.7-3.9-3.8-3.9c0,0-0.1,0-0.1,0H135.9z"/>
<path class="st4" d="M99.1,48.9c-0.6-0.6-1.6-0.6-2.2,0c0,0,0,0,0,0l-6.8,6.8V39c0-0.9-0.7-1.6-1.6-1.6c-0.9,0-1.6,0.7-1.6,1.6v16.7
	l-6.8-6.8c-0.6-0.6-1.6-0.6-2.2,0c-0.6,0.6-0.6,1.6,0,2.2c0,0,0,0,0,0l9.5,9.5c0.6,0.6,1.6,0.6,2.2,0l9.5-9.5
	C99.7,50.5,99.7,49.5,99.1,48.9z"/>
<path id="ebf544e0-cedc-491d-9ace-ce79788cc3b4" class="st3" d="M168.8,149c-1.5,0-2.7,1.2-2.7,2.7v93c0,1.5,1.2,2.7,2.7,2.7H486
	c1.5,0,2.7-1.2,2.7-2.7v-93c0-1.5-1.2-2.7-2.7-2.7L168.8,149z"/>
<path id="f05ecdaf-6a8f-49c4-b8a7-f7e5ce9efcf7" class="st4" d="M172.9,240.6h308.9v-84.8H172.9V240.6z"/>
<path id="a9f7bc9d-00a6-4157-bba1-ffc7ec111a68" class="st5" d="M442.9,223c-2.5,0-4.5,2-4.5,4.5c0,2.5,2,4.5,4.5,4.5h18.1
	c2.5,0,4.5-2,4.5-4.5c0-2.5-2-4.5-4.5-4.5H442.9L442.9,223z"/>
<rect id="a15d3d52-efbb-4636-8d15-228635c5d6e5" x="256.9" y="214.2" class="st3" width="208.6" height="1.2"/>
<circle id="e4ee77d8-efe6-4a2a-a3ed-71b8f3ee957e" class="st5" cx="213.3" cy="198.2" r="26.3"/>
<path id="fc1c89ac-2b6e-4831-b128-0ac2ab1fa850" class="st2" d="M257.2,207.6l-0.7-1l21.7-14.5l14.9,7.1l21.4-13.7l0.3,0.1l42.2,18
	l33.9-16.6l32.9,13.3l41.3-36.6l0.8,0.9L424,201.9l-33.1-13.4L357,205.1L314.6,187l-21.4,13.7l-14.8-7.1L257.2,207.6z"/>
<path id="bd690ac4-3df0-4871-95d5-adaa934b7c24" class="st3" d="M260.7,223.6c-2.1,0-3.9,1.7-3.9,3.8c0,2.1,1.7,3.9,3.8,3.9l0,0
	c0,0,0.1,0,0.1,0h40.4c2.1,0,3.8-1.8,3.8-3.9c0-2.1-1.7-3.8-3.8-3.8H260.7z"/>
<path class="st4" d="M202.7,198.5c0.6,0.6,1.6,0.6,2.2,0c0,0,0,0,0,0l6.8-6.8v16.7c0,0.9,0.7,1.6,1.6,1.6s1.6-0.7,1.6-1.6v-16.7
	l6.8,6.8c0.6,0.6,1.6,0.6,2.2,0s0.6-1.6,0-2.2l-9.5-9.5c-0.6-0.6-1.6-0.6-2.2,0l-9.5,9.5C202.1,196.9,202.1,197.9,202.7,198.5
	L202.7,198.5z"/>
<path id="b1a491a7-739b-4f1f-bff8-dbf70f6892c8" class="st3" d="M2.7,297.9c-1.5,0-2.7,1.2-2.7,2.7v93c0,1.5,1.2,2.7,2.7,2.7h317.2
	c1.5,0,2.7-1.2,2.7-2.7v-93c0-1.5-1.2-2.7-2.7-2.7H2.7z"/>
<path id="acd48b1a-d10a-4276-b388-f016adebff0c" class="st4" d="M6.8,389.6h308.9v-84.8H6.8L6.8,389.6z"/>
<path id="bed21912-b6c9-41df-a59b-963435bac71a" class="st5" d="M276.8,372c-2.5,0-4.5,2-4.5,4.5c0,2.5,2,4.5,4.5,4.5h18.1
	c2.5,0,4.5-2,4.5-4.5c0-2.5-2-4.5-4.5-4.5H276.8z"/>
<rect id="a26455fb-834b-4368-afb2-80d86a75d46a" x="90.8" y="363.2" class="st3" width="208.6" height="1.2"/>
<circle id="f17c58cd-37a1-42e1-9e5f-26c2ec8825b4" class="st5" cx="47.2" cy="347.2" r="26.3"/>
<path id="b803193f-4714-40c6-8606-08b9dea6d22d" class="st2" d="M91.1,356.6l-0.7-1l21.7-14.5l14.9,7.1l21.4-13.7l42.5,18.1
	l33.9-16.6l32.9,13.3l41.3-16.6l0.8,0.9l-41.9,17.1l-33.1-13.4l-33.9,16.6l-42.5-18.1l-21.4,13.7l-14.9-7.1L91.1,356.6z"/>
<path id="b19b31b4-3a52-4fc9-8ed4-dc6729deb0ed" class="st3" d="M94.6,372.6c-2.1,0-3.8,1.8-3.8,3.9c0,2.1,1.7,3.8,3.8,3.8h40.4
	c2.1,0,3.9-1.7,3.9-3.8c0-2.1-1.7-3.9-3.8-3.9c0,0-0.1,0-0.1,0H94.6z"/>
<path class="st4" d="M36.6,347.5c0.6,0.6,1.6,0.6,2.2,0c0,0,0,0,0,0l6.8-6.8v16.7c0,0.9,0.7,1.6,1.6,1.6c0.9,0,1.6-0.7,1.6-1.6
	c0,0,0,0,0,0v-16.7l6.8,6.8c0.6,0.6,1.6,0.6,2.2,0c0.6-0.6,0.6-1.6,0-2.2c0,0,0,0,0,0l-9.5-9.5c-0.6-0.6-1.6-0.6-2.2,0l-9.5,9.5
	C36,345.9,36,346.9,36.6,347.5z"/>
<rect x="-353" y="184.4" class="st6" width="290" height="227"/>
</svg>
